<?xml version="1.0" standalone="no"?>
<!DOCTYPE svg PUBLIC "-//W3C//DTD SVG 20010904//EN" "http://www.w3.org/TR/2001/REC-SVG-20010904/DTD/svg10.dtd">
<svg version="1.0" xmlns="http://www.w3.org/2000/svg"
    width="512.000000pt" height="512.000000pt" viewBox="0 0 512.000000 512.000000"
    preserveAspectRatio="xMidYMid meet">
    <g transform="translate(0.000000,512.000000) scale(0.100000,-0.100000)"
        fill="#ffffff" stroke="none">
        <path
            d="M296 5039 c-59 -129 -79 -237 -73 -404 3 -125 7 -150 37 -237 39
-116 105 -228 189 -320 67 -72 302 -261 348 -279 15 -6 76 -19 134 -30 137
-24 156 -32 367 -137 97 -49 227 -111 287 -137 143 -62 278 -130 335 -168 72
-49 180 -138 191 -159 18 -33 2 -32 -43 4 -79 64 -172 122 -240 149 -88 36
-319 95 -341 86 -22 -8 -23 -64 -2 -113 8 -19 31 -90 50 -157 45 -149 74 -205
141 -266 62 -57 129 -81 224 -81 54 0 69 -3 74 -17 5 -12 9 -14 18 -5 7 7 23
12 37 11 25 -1 25 -1 -4 -10 -16 -5 -43 -21 -60 -35 -29 -26 -30 -26 -5 -20
21 4 27 0 40 -32 21 -49 11 -174 -20 -257 -19 -51 -21 -73 -17 -141 5 -68 2
-91 -15 -135 -17 -45 -19 -68 -14 -139 3 -47 7 -130 9 -185 2 -55 9 -113 16
-130 l12 -29 19 42 c11 23 20 42 22 42 2 0 4 -28 5 -63 3 -95 31 -202 79 -308
42 -91 44 -101 44 -187 0 -87 2 -95 40 -167 22 -42 40 -90 40 -108 1 -88 47
-220 120 -337 26 -41 62 -101 80 -132 19 -31 76 -108 128 -170 52 -62 106
-129 120 -150 15 -21 30 -38 34 -38 3 0 30 28 59 61 29 34 99 97 155 141 109
83 150 128 231 248 28 41 68 91 88 110 20 19 46 49 57 65 37 53 -122 -117
-199 -213 -51 -64 -102 -114 -166 -162 -51 -38 -110 -84 -132 -102 l-40 -33
31 43 c17 23 78 84 135 135 74 66 122 120 172 192 62 90 167 285 167 310 0 5
-23 -31 -51 -80 -114 -199 -194 -299 -312 -391 l-62 -49 35 45 c19 25 75 90
123 145 110 124 168 211 251 379 63 125 124 310 112 339 -2 7 -5 4 -5 -5 -2
-47 -70 -226 -128 -340 -70 -136 -138 -227 -223 -298 l-54 -45 44 60 c24 33
63 84 87 113 23 29 50 67 58 85 l16 32 -27 -32 c-14 -18 -57 -58 -95 -89 -72
-59 -122 -119 -170 -207 l-28 -52 5 40 c13 100 37 204 64 277 29 78 49 117
164 323 68 121 100 216 122 366 17 116 15 239 -5 289 -6 18 -8 -2 -4 -65 10
-170 -28 -383 -88 -495 -16 -30 -75 -107 -130 -170 -165 -190 -208 -305 -210
-567 -1 -103 -4 -127 -10 -93 -11 64 -10 193 1 275 11 76 49 206 64 216 5 4 5
12 2 18 -4 6 31 94 78 194 83 178 136 317 136 354 -1 10 -11 -13 -24 -52 -29
-89 -81 -192 -141 -280 -95 -139 -133 -238 -151 -395 l-7 -65 -13 43 c-21 69
-27 172 -14 241 6 35 40 131 75 212 35 82 67 166 70 186 6 35 3 32 -33 -32
-21 -38 -56 -97 -77 -129 -21 -33 -48 -84 -61 -115 -13 -31 -23 -51 -23 -46
-1 26 42 209 69 294 27 83 30 106 29 210 l-2 116 -8 -105 c-12 -141 -16 -152
-19 -45 l-2 90 -13 -75 c-7 -41 -32 -122 -55 -179 l-43 -105 5 -115 c4 -111 4
-114 -8 -61 -26 111 -28 181 -6 286 11 55 23 117 25 139 8 64 -9 11 -29 -90
-23 -119 -29 -93 -9 41 17 116 20 123 113 225 27 30 57 68 66 86 18 36 21 127
6 168 -6 17 -6 24 0 20 5 -3 17 -31 26 -61 23 -79 21 -221 -5 -309 -11 -38
-18 -71 -16 -73 6 -7 23 33 60 148 21 63 42 118 47 121 14 9 28 71 26 114 l-1
40 -7 -45 -7 -45 -2 60 c-1 37 -9 76 -21 100 -11 22 -17 31 -14 20 18 -55 22
-109 14 -161 -5 -31 -11 -58 -12 -60 -2 -1 -3 34 -3 79 0 68 -4 89 -23 121
l-23 39 24 26 c14 14 48 72 77 129 49 95 52 106 47 155 -8 65 -25 127 -37 127
-4 0 -4 -17 2 -37 18 -65 5 -170 -31 -247 -18 -37 -34 -66 -37 -63 -2 2 0 15
5 29 5 13 12 51 15 84 l7 59 -19 -52 c-24 -67 -67 -129 -95 -137 -12 -3 -62
-5 -112 -4 -49 1 -72 3 -50 5 22 1 69 6 105 10 l65 7 -50 7 c-27 4 -73 8 -102
8 -58 1 -63 5 -56 42 5 25 9 27 77 32 114 10 123 21 21 27 l-90 5 -3 52 c-3
47 0 56 25 79 31 30 118 74 146 74 10 0 15 4 12 10 -16 27 -128 -15 -175 -65
-22 -23 -25 -24 -42 -8 -17 16 -17 15 -2 -16 11 -23 14 -47 10 -89 -3 -31 -5
-69 -6 -83 0 -15 -7 -32 -15 -39 -23 -19 -103 -16 -155 4 -38 15 -63 17 -158
12 l-113 -5 -15 34 c-17 42 -18 91 -2 153 9 37 13 42 19 26 4 -10 7 -28 7 -39
0 -16 -2 -15 -8 5 l-8 25 -1 -28 c-1 -32 15 -67 30 -67 6 0 5 9 -2 22 l-12 23
22 -19 c32 -29 25 -69 -14 -77 -27 -5 -28 -7 -10 -15 11 -4 38 -8 60 -7 22 1
80 -3 128 -8 51 -6 94 -6 104 -1 11 7 5 11 -26 16 -62 10 -100 82 -64 123 18
22 91 44 79 25 -3 -6 -20 -13 -36 -17 -41 -9 -56 -39 -35 -71 8 -13 25 -24 36
-24 25 0 99 70 99 94 0 8 -13 30 -29 48 -28 32 -29 32 -152 39 -102 6 -128 5
-147 -8 -22 -14 -23 -13 -12 6 6 11 38 40 73 63 57 39 68 43 137 47 51 2 68 6
55 12 -39 15 -119 10 -152 -11 -18 -11 -33 -17 -33 -13 0 4 -12 -4 -26 -18
l-27 -24 18 35 c10 19 42 68 71 109 38 51 54 83 54 105 1 26 2 28 11 13 15
-26 -4 -76 -57 -148 -25 -33 -44 -63 -41 -65 8 -8 125 123 146 163 27 54 27
61 -6 96 l-28 29 25 -7 c14 -4 35 -17 48 -29 l23 -23 -21 -39 c-15 -27 -16
-31 -3 -14 30 42 75 79 123 102 45 22 90 62 90 81 0 6 -8 3 -17 -6 -10 -8 -36
-20 -59 -26 -22 -6 -49 -20 -59 -31 -24 -26 -35 -25 -35 4 0 25 -39 82 -40 57
0 -8 -14 -1 -35 18 -47 41 -54 39 -16 -4 17 -20 31 -42 31 -50 0 -22 -28 -7
-45 24 l-14 26 -1 -32 c0 -22 -7 -36 -20 -43 -18 -10 -20 -8 -20 20 0 46 -25
85 -66 105 -26 12 -33 20 -25 28 7 7 27 6 68 -6 32 -9 83 -18 113 -21 39 -4
61 -12 79 -30 l24 -24 36 27 c56 44 81 47 36 6 -28 -26 -30 -29 -7 -11 19 14
42 26 52 26 23 0 87 27 95 39 3 6 -10 4 -29 -4 -50 -21 -67 -19 -27 3 19 10
42 29 50 43 l16 24 -31 -22 c-17 -12 -53 -27 -80 -33 -28 -6 -61 -23 -76 -37
-23 -22 -28 -24 -28 -9 0 9 -6 29 -14 44 -12 22 -22 28 -53 30 -32 1 -34 0
-15 -8 12 -5 22 -11 22 -13 0 -6 -117 10 -129 17 -6 4 -11 3 -11 -3 0 -5 12
-14 28 -20 23 -9 20 -10 -23 -5 -71 7 -85 13 -85 33 0 30 12 32 32 6 11 -14
24 -25 30 -25 7 0 1 12 -13 26 -17 19 -20 28 -11 31 7 3 35 20 62 39 57 39 60
40 60 17 1 -15 4 -14 21 6 l20 24 6 -21 c4 -18 8 -20 19 -11 11 9 14 8 14 -5
0 -19 16 -21 23 -3 3 7 6 5 6 -5 1 -10 5 -18 11 -18 5 0 7 -23 5 -52 -4 -48
-4 -50 5 -20 11 32 65 76 82 66 4 -3 20 3 36 14 15 11 32 17 39 15 6 -2 17 5
23 17 11 21 12 21 49 -13 20 -18 61 -48 91 -67 53 -32 55 -35 55 -76 0 -34 -3
-40 -14 -31 -7 6 -17 22 -22 36 -8 18 -13 21 -21 13 -7 -7 -21 -12 -32 -12
-20 0 -110 -39 -104 -45 2 -2 34 5 73 16 54 15 71 16 77 6 5 -8 -3 -15 -23
-20 -61 -16 -131 -73 -172 -139 -30 -48 9 -22 48 33 93 130 216 119 255 -22
l9 -34 -20 28 c-25 33 -68 36 -122 7 -20 -11 -41 -20 -47 -20 -21 0 -9 55 18
84 l27 29 -33 -22 c-40 -28 -52 -50 -52 -95 0 -38 -49 -110 -50 -73 0 23 -20
12 -20 -11 0 -10 -14 -34 -31 -55 -39 -47 -51 -94 -33 -133 l12 -29 1 36 c1
24 13 52 36 85 19 27 35 54 35 59 0 14 59 85 71 85 18 0 8 -26 -26 -69 -41
-51 -39 -62 3 -31 30 22 31 22 82 5 59 -19 93 -11 105 24 9 28 25 27 25 -1 0
-32 -35 -86 -64 -99 -18 -9 -31 -7 -64 10 -56 28 -65 26 -20 -4 49 -34 83 -32
120 6 28 27 30 28 24 7 -4 -13 -9 -41 -11 -63 -2 -22 -7 -57 -11 -77 -11 -69
4 -39 22 43 17 78 18 80 30 52 10 -24 11 -18 7 48 -5 68 -3 79 16 98 11 11 18
22 14 22 -5 1 -12 2 -18 3 -5 0 -29 13 -52 29 -48 31 -96 35 -133 11 -15 -9
-10 -1 12 20 21 20 47 36 59 36 27 0 59 -18 59 -33 0 -7 9 -18 19 -24 16 -10
20 -9 25 3 12 31 5 61 -25 108 -21 35 -27 52 -20 59 17 17 13 31 -4 17 -12
-10 -15 -9 -15 6 0 28 11 64 20 64 4 0 12 -12 19 -27 7 -16 33 -61 59 -101
l46 -72 27 26 c21 20 42 28 96 34 100 13 121 24 183 95 26 29 24 29 -43 0 -51
-21 -38 -3 26 38 29 19 59 42 67 52 14 17 14 17 -18 1 -48 -25 -49 -14 -2 28
47 42 50 49 13 35 -91 -36 -106 -26 -25 15 26 13 58 34 72 45 l25 22 -43 -21
c-90 -44 -100 -43 -47 2 75 63 135 127 135 143 0 16 -44 5 -182 -46 -191 -70
-258 -126 -274 -229 -6 -38 -5 -42 12 -38 10 2 28 18 39 36 63 103 104 157
135 175 l35 21 -42 -43 c-24 -24 -40 -47 -37 -52 3 -5 -1 -10 -8 -10 -7 -1 3
-5 22 -9 l35 -6 -35 -11 c-30 -10 -32 -11 -10 -12 24 -2 25 -2 5 -17 -11 -8
-20 -20 -20 -27 0 -14 -44 -62 -65 -70 -10 -4 -8 -6 7 -6 12 -1 34 4 50 10 21
8 25 7 17 -1 -15 -15 -98 -34 -101 -23 -2 5 -18 7 -37 5 -26 -3 -37 1 -50 19
-21 31 -20 51 4 98 27 54 106 122 197 169 81 42 240 98 307 109 l39 6 -6 -74
c-13 -167 -104 -337 -223 -416 -45 -30 -66 -37 -131 -43 -73 -7 -79 -10 -115
-48 -31 -34 -38 -38 -38 -21 0 28 -23 69 -55 99 l-27 25 25 -38 c38 -56 44
-126 17 -183 -25 -51 -23 -98 6 -175 54 -144 114 -328 114 -349 0 -14 5 -32
10 -40 7 -11 10 -7 10 19 0 31 2 28 37 -38 67 -130 254 -283 399 -326 44 -13
121 -40 173 -60 66 -26 114 -38 165 -41 l71 -4 -65 21 c-36 11 -122 42 -191
69 -69 27 -148 54 -176 60 -40 9 -69 27 -150 95 -124 103 -171 156 -216 243
-59 112 -167 395 -167 436 0 44 38 123 85 175 31 34 41 39 97 45 129 13 226
92 303 249 49 98 90 259 79 310 -12 56 -40 57 -204 5 -120 -38 -228 -94 -305
-158 -33 -27 -68 -50 -77 -50 -11 0 -23 -14 -31 -32 -12 -30 -14 -31 -19 -11
-9 33 77 122 190 197 153 102 226 129 586 220 140 36 295 79 343 96 119 43
153 49 259 50 81 0 98 3 143 28 47 25 215 162 338 276 113 105 160 265 149
506 -7 149 -23 247 -61 360 -25 76 -62 146 -71 137 -3 -3 2 -41 10 -85 39
-206 44 -478 10 -622 -25 -110 -64 -147 -64 -61 0 96 -22 259 -61 457 -29 148
-37 208 -30 226 22 59 39 128 31 128 -5 0 -18 -24 -29 -52 -15 -39 -20 -46
-21 -28 0 14 -5 32 -10 40 -20 30 -10 -47 40 -309 28 -145 50 -276 49 -290 -1
-33 -38 139 -84 394 -28 153 -45 217 -70 273 -32 69 -35 72 -69 72 l-35 0 24
-71 c14 -40 32 -105 40 -146 18 -87 12 -121 -37 -202 -35 -57 -58 -75 -58 -44
0 33 -50 226 -76 295 -25 66 -63 126 -64 101 0 -7 8 -55 17 -105 13 -71 17
-147 17 -323 -1 -244 -16 -359 -65 -489 -29 -79 -113 -214 -167 -269 -51 -52
-157 -111 -191 -105 -21 3 -20 6 19 86 82 171 108 305 90 479 -13 126 -29 203
-42 203 -6 0 -8 -13 -4 -32 14 -74 18 -227 7 -296 -22 -139 -96 -338 -157
-417 -13 -17 -38 -41 -56 -55 l-33 -24 17 24 c107 153 199 430 214 645 4 50 4
87 1 84 -4 -3 -13 -53 -21 -112 -32 -226 -116 -474 -183 -541 -15 -15 -59 -42
-97 -60 -69 -33 -202 -73 -211 -65 -2 3 11 43 30 89 88 222 91 473 10 729 -25
77 -62 148 -72 138 -3 -3 3 -52 13 -109 13 -71 19 -152 19 -263 0 -143 -3
-171 -28 -269 -43 -165 -114 -322 -169 -373 -26 -24 -137 -93 -150 -93 -5 0 2
21 16 48 114 227 123 446 29 695 -25 67 -51 86 -45 34 23 -216 16 -389 -23
-521 -27 -93 -85 -229 -103 -240 -18 -11 -24 47 -21 226 2 97 1 179 -2 183
-10 9 -48 -80 -65 -152 -9 -41 -15 -114 -15 -194 0 -136 -13 -204 -52 -269
-30 -52 -68 -90 -89 -90 -11 0 -26 -13 -36 -29 -12 -22 -26 -30 -57 -34 -22
-4 -60 -9 -84 -13 -29 -5 -68 -1 -121 12 -64 15 -80 23 -93 46 -10 17 -25 28
-37 28 -16 0 -29 16 -55 73 -54 114 -70 185 -69 322 0 137 13 194 75 317 21
42 39 82 39 87 0 22 -32 -4 -76 -63 -56 -72 -106 -176 -129 -266 -17 -64 -22
-211 -10 -251 17 -51 -15 -3 -48 74 -107 249 -123 469 -52 749 14 53 25 101
25 107 0 61 -111 -156 -140 -274 -42 -164 -37 -296 15 -471 38 -125 34 -129
-49 -53 -59 54 -79 94 -110 225 -14 56 -24 76 -47 93 -20 15 -29 18 -30 9 -4
-36 4 -120 17 -182 7 -38 12 -72 9 -74 -9 -9 -88 19 -181 62 -97 46 -222 126
-284 182 -71 65 -120 231 -120 411 0 120 13 181 72 327 22 56 58 152 80 215
21 62 50 135 64 162 13 27 20 49 15 49 -22 0 -90 -97 -156 -221 -105 -198
-135 -209 -200 -74 -41 84 -65 183 -65 268 0 31 -4 57 -10 57 -5 0 -10 -26
-11 -57 -1 -52 -2 -55 -10 -27 -5 18 -16 34 -24 38 -12 4 -15 -4 -17 -37 -5
-142 27 -274 99 -407 l46 -84 -12 -128 c-17 -176 -2 -286 59 -430 33 -78 33
-78 -62 -48 -131 40 -186 124 -195 296 -6 105 11 208 57 338 31 88 36 116 21
116 -16 0 -69 -71 -101 -136 -59 -121 -72 -171 -79 -309 l-6 -130 -27 55 c-48
96 -62 171 -62 315 0 78 8 168 18 225 20 108 68 304 90 368 8 23 11 42 6 42
-27 0 -118 -372 -140 -575 -9 -78 -9 -77 -4 25 5 129 42 314 88 446 34 98 38
127 10 90 -23 -32 -111 -264 -150 -397 -31 -106 -37 -139 -38 -231 -1 -104 -2
-107 -18 -85 -22 27 -44 98 -59 186 -21 119 2 332 57 519 6 19 3 22 -23 22
-28 0 -33 -6 -67 -81z m4058 -247 c14 -60 26 -117 25 -128 -1 -22 -43 132 -53
194 -12 76 2 44 28 -66z m276 -406 c13 -117 1 -246 -31 -331 -26 -69 -109
-147 -212 -199 -140 -71 -171 -51 -103 69 79 140 117 264 132 433 6 77 10 89
51 148 52 76 100 174 110 224 7 35 22 -62 53 -344z m-3850 242 c-10 -24 -30
-81 -44 -128 -18 -59 -24 -71 -20 -40 9 61 40 160 59 188 24 34 26 27 5 -20z
m2696 -298 c17 -93 20 -305 5 -360 -6 -25 -8 -5 -4 67 7 131 -6 167 -23 63
l-12 -75 5 110 c5 95 -2 199 -22 360 -8 69 33 -67 51 -165z m-2457 54 c-6 -54
-8 -124 -4 -154 3 -30 8 -71 10 -90 3 -26 1 -22 -9 15 -17 62 -20 188 -5 272
17 94 21 70 8 -43z m3325 -1 c-7 -82 -32 -206 -49 -245 -19 -44 -18 -34 4 64
11 46 23 112 26 148 7 68 11 90 19 90 2 0 2 -26 0 -57z m-3934 -63 c12 -6 19
-14 17 -17 -17 -16 -97 73 -97 108 0 7 13 -8 29 -33 16 -26 39 -52 51 -58z
m297 58 c-3 -7 -5 -2 -5 12 0 14 2 19 5 13 2 -7 2 -19 0 -25z m1212 -108 c-26
-97 -39 -281 -29 -395 7 -73 36 -201 66 -285 3 -10 2 -12 -5 -5 -18 19 -61
190 -71 280 -14 136 5 339 41 453 20 60 18 28 -2 -48z m-1222 -27 c-2 -21 -4
-6 -4 32 0 39 2 55 4 38 2 -18 2 -50 0 -70z m4000 25 c-3 -8 -6 -5 -6 6 -1 11
2 17 5 13 3 -3 4 -12 1 -19z m-743 -168 c-22 -122 -30 -103 -9 24 8 53 16 110
17 128 1 25 2 22 5 -12 3 -25 -3 -88 -13 -140z m-823 50 c33 -117 33 -296 1
-385 -12 -33 -18 -44 -14 -25 4 19 6 53 5 75 0 27 2 33 6 20 7 -16 9 -14 14
14 4 19 6 50 6 70 l-2 36 -7 -40 -7 -40 -2 50 c-1 47 -10 137 -27 265 -9 74
-1 62 27 -40z m-2608 -25 c16 -23 17 -27 3 -16 -10 8 -31 35 -48 60 -27 42
-27 43 -3 16 14 -16 36 -43 48 -60z m4252 22 c-14 -23 -37 -58 -52 -77 -21
-30 -24 -31 -18 -10 4 14 25 48 46 76 22 28 39 57 40 65 0 10 2 11 6 1 2 -7
-7 -31 -22 -55z m-4068 6 c-3 -10 -5 -4 -5 12 0 17 2 24 5 18 2 -7 2 -21 0
-30z m87 -171 c40 -37 143 -82 189 -82 11 0 15 -5 11 -11 -16 -26 -172 21
-213 64 -25 27 -57 100 -65 147 -4 24 0 18 15 -22 14 -38 34 -69 63 -96z
m2643 6 c-3 -7 -5 -2 -5 12 0 14 2 19 5 13 2 -7 2 -19 0 -25z m1080 -76 c-20
-20 -51 -45 -69 -55 -32 -17 -32 -17 -8 0 14 10 43 35 65 55 52 49 59 49 12 0z
m-2873 -99 c1 -54 -1 -84 -5 -68 -8 37 -11 180 -3 173 3 -4 7 -50 8 -105z
m-336 -46 c71 -44 194 -103 272 -130 12 -4 11 -6 -2 -6 -31 -2 -180 58 -251
100 -72 43 -137 101 -157 141 -7 13 1 7 19 -14 18 -21 71 -61 119 -91z m122
-40 c41 -21 64 -35 50 -31 -60 16 -248 130 -281 171 -7 8 25 -12 72 -44 46
-32 118 -75 159 -96z m239 103 c1 -13 0 -13 -9 0 -5 8 -9 24 -9 35 l0 20 9
-20 c5 -11 9 -27 9 -35z m1238 3 c-3 -10 -5 -2 -5 17 0 19 2 27 5 18 2 -10 2
-26 0 -35z m-777 -115 c-8 -53 -8 -102 0 -160 10 -87 51 -242 76 -290 16 -30
18 -48 6 -48 -11 0 -45 100 -73 215 -24 95 -31 255 -16 329 14 64 18 34 7 -46z
m1187 -1 c-20 -41 -54 -92 -74 -115 -43 -46 -212 -166 -221 -157 -14 13 20 43
99 86 100 56 156 114 195 203 15 36 30 63 33 61 2 -3 -12 -38 -32 -78z m658
42 c-22 -10 -47 -18 -55 -18 -8 0 5 8 30 19 59 24 76 24 25 -1z m-301 -30
c-16 -16 -56 -43 -89 -59 -67 -32 -192 -67 -203 -55 -13 12 26 31 110 54 46
12 110 37 143 55 33 19 62 34 64 35 3 0 -8 -13 -25 -30z m686 11 c-31 -10
-129 -11 -152 -2 -9 4 27 7 80 8 58 1 87 -2 72 -6z m-467 -7 c-7 -2 -19 -2
-25 0 -7 3 -2 5 12 5 14 0 19 -2 13 -5z m112 -12 c-18 -16 -134 -51 -288 -87
-244 -57 -396 -102 -482 -144 -81 -39 -214 -128 -279 -188 -20 -18 -36 -28
-36 -23 0 38 194 183 315 237 143 63 313 113 488 144 65 12 152 32 195 44 90
27 100 29 87 17z m-2213 -140 c92 -70 105 -83 43 -46 -33 21 -71 47 -84 59
-25 22 -60 90 -61 116 0 8 11 -8 24 -37 17 -36 40 -63 78 -92z m-202 82 c30
-11 31 -12 6 -8 -16 4 -43 13 -60 20 -23 11 -25 13 -6 8 14 -3 41 -12 60 -20z
m1730 7 c-6 -11 -13 -20 -16 -20 -2 0 0 9 6 20 6 11 13 20 16 20 2 0 0 -9 -6
-20z m-1551 -151 c75 -35 172 -102 221 -154 30 -33 22 -29 -63 29 -54 36 -138
87 -188 111 -49 25 -89 48 -89 51 0 10 52 -6 119 -37z m1046 -186 c-27 -60
-74 -128 -82 -120 -2 3 12 26 31 51 20 26 43 69 53 97 10 27 19 45 21 39 2 -5
-8 -35 -23 -67z m-1142 -4 c165 -48 235 -78 289 -127 43 -39 78 -99 78 -132 0
-33 -17 -14 -35 39 -8 26 -27 59 -41 72 l-26 24 22 -38 c12 -21 24 -52 25 -70
2 -18 3 -37 4 -43 1 -7 10 -14 21 -17 20 -5 20 -5 -2 -51 -23 -47 -29 -51 -63
-36 -13 6 -15 9 -5 9 8 1 21 10 28 21 10 17 10 20 -3 20 -9 0 -32 7 -53 16
-37 16 -37 16 -12 25 24 10 24 10 -18 35 -23 14 -42 27 -42 30 0 3 17 4 38 2
36 -3 37 -2 35 27 -3 36 -30 74 -72 99 -38 22 -301 107 -301 97 0 -11 79 -66
120 -85 l35 -16 -37 4 c-67 8 -54 -21 29 -63 42 -21 98 -69 90 -78 -7 -6 -97
18 -130 34 -16 8 -31 12 -34 9 -3 -2 37 -25 89 -50 98 -48 104 -56 22 -31 -58
18 -54 17 -54 6 0 -5 25 -26 55 -46 59 -41 65 -52 20 -35 -34 13 -43 6 -24
-16 13 -16 12 -16 -9 -5 -12 6 -34 30 -49 52 -31 46 -40 45 -20 -3 37 -88 109
-134 226 -145 70 -6 101 -17 101 -35 0 -7 -25 -9 -81 -5 -133 9 -225 69 -277
181 -18 37 -98 289 -109 344 -7 30 3 29 170 -19z m1687 -64 c-7 -8 -18 -15
-24 -15 -6 0 -2 7 8 15 25 19 32 19 16 0z m-1105 -55 c-10 -11 -22 -20 -26
-20 -5 0 2 10 14 23 27 28 38 25 12 -3z m-537 -15 c3 -3 -2 -5 -12 -5 -18 0
-86 26 -86 34 0 5 91 -22 98 -29z m359 -82 c37 -52 40 -63 18 -63 -8 0 -24 19
-36 43 -12 23 -33 58 -47 77 l-27 35 30 -23 c16 -13 44 -44 62 -69z m627 45
c41 -65 93 -100 139 -96 22 2 36 -1 34 -7 -2 -5 -19 -11 -39 -13 -54 -5 -144
71 -163 136 -9 33 -1 27 29 -20z m-394 23 c0 -26 -129 -111 -167 -111 -10 1 5
12 32 25 28 13 66 40 85 60 34 35 50 43 50 26z m162 -29 c44 -2 91 0 110 7 30
10 31 10 13 -4 -28 -22 -94 -38 -129 -31 -17 4 -49 15 -71 26 -22 11 -31 17
-20 14 11 -4 55 -9 97 -12z m478 -37 c0 -3 -7 -22 -15 -42 -22 -51 -19 -76 16
-144 17 -34 29 -62 27 -64 -10 -10 -71 90 -75 125 -6 42 20 130 38 130 5 0 9
-2 9 -5z m-895 -160 c-27 -31 -56 -55 -67 -55 -22 0 -102 39 -95 46 3 3 23 -4
46 -15 22 -12 45 -21 50 -21 6 0 22 18 36 40 21 33 47 54 73 59 2 1 -18 -24
-43 -54z m1030 -26 c-46 -21 -96 -26 -77 -7 6 6 31 15 54 19 64 10 66 9 23
-12z m-929 -10 c19 -11 39 -29 44 -39 15 -27 12 -73 -5 -96 -14 -18 -14 -18
-15 7 0 26 -41 91 -74 118 -13 11 -14 16 -4 22 17 12 16 12 54 -12z m-43 -46
c14 -21 28 -49 32 -62 l8 -25 -33 27 c-18 15 -40 26 -49 23 -9 -2 -26 -7 -38
-11 -13 -3 -23 -4 -23 0 0 14 54 85 65 85 7 0 24 -17 38 -37z m-6 -85 c24 -24
33 -41 33 -65 0 -19 8 -46 17 -61 l16 -27 -23 22 c-13 12 -35 43 -49 70 -19
35 -35 51 -59 59 -25 8 -29 13 -20 22 20 20 51 13 85 -20z m177 -24 c18 -17
21 -61 6 -84 -7 -11 -8 -6 -4 16 6 32 -18 70 -37 59 -10 -7 -12 8 -2 18 10 11
20 8 37 -9z m526 -50 c0 -2 -7 -4 -15 -4 -8 0 -15 4 -15 10 0 5 7 7 15 4 8 -4
15 -8 15 -10z m-682 -90 c4 -26 -34 -74 -58 -74 -22 0 -36 17 -45 53 -6 22 -4
26 8 21 8 -3 28 1 44 10 34 18 47 16 51 -10z m-109 -275 c-6 -51 -13 -96 -15
-98 -9 -10 -3 125 8 160 6 22 13 38 14 36 2 -2 -1 -46 -7 -98z m150 1 c24 -17
53 -30 65 -30 14 0 17 -3 9 -11 -17 -17 -72 0 -90 28 -9 14 -26 29 -37 33 -13
6 -15 9 -6 9 8 0 35 -13 59 -29z m-182 -236 c-6 -20 -13 -32 -14 -27 -4 11 14
63 21 63 2 0 -1 -16 -7 -36z m333 -10 c29 -9 66 -14 81 -12 24 4 26 2 19 -13
-11 -20 -68 -69 -80 -69 -5 0 -7 6 -4 13 6 18 -78 57 -139 64 -37 5 -48 3 -43
-5 4 -7 12 -12 18 -12 14 0 48 -30 48 -42 0 -4 -8 -8 -17 -8 -18 0 -63 56 -63
77 0 26 104 30 180 7z m-310 -44 c-6 -11 -13 -20 -16 -20 -2 0 0 9 6 20 6 11
13 20 16 20 2 0 0 -9 -6 -20z m6 -84 c-9 -26 -16 -61 -16 -78 0 -31 0 -31 60
33 32 35 59 59 60 54 0 -6 -30 -49 -67 -95 l-68 -85 -3 68 c-2 51 2 78 18 114
26 58 37 50 16 -11z m789 -63 c5 -51 5 -52 -19 52 -6 23 -5 26 3 13 6 -9 13
-38 16 -65z m-132 16 c48 -51 36 -133 -35 -244 -35 -56 -37 -58 -31 -25 3 19
14 57 24 83 11 26 19 55 19 65 0 9 -11 -12 -24 -48 -13 -36 -32 -85 -43 -110
-44 -99 -68 -273 -60 -429 5 -105 5 -113 -8 -84 -54 125 -44 308 24 458 16 36
26 65 22 65 -23 0 -111 -192 -111 -244 0 -12 -5 -28 -11 -36 -19 -27 -2 121
21 184 13 35 48 90 86 137 35 43 69 90 74 104 14 38 12 90 -5 131 -14 35 -14
35 8 29 12 -4 34 -20 50 -36z m-244 -118 l-33 -46 39 29 c22 16 50 40 62 55
13 14 23 21 23 14 0 -34 -93 -109 -122 -98 -7 3 -37 -16 -66 -43 -28 -26 -52
-46 -52 -44 0 2 19 35 43 75 23 39 50 89 59 111 9 23 17 33 17 23 1 -10 -11
-41 -25 -70 l-26 -52 41 40 c23 21 47 55 54 74 l12 35 3 -28 c3 -20 -7 -43
-29 -75z m147 4 c-4 -18 -25 -61 -48 -96 -23 -35 -52 -82 -65 -104 -12 -22
-23 -34 -23 -27 0 15 52 119 86 174 13 21 30 59 36 85 10 35 14 41 16 24 2
-13 1 -38 -2 -56z m-479 28 c-17 -30 -22 -57 -25 -138 -2 -55 -2 -98 1 -95 3
3 11 37 17 75 13 82 34 126 24 50 l-7 -50 43 45 c41 44 38 37 -18 -45 -25 -37
-27 -48 -27 -137 0 -53 -3 -91 -7 -84 -19 34 -40 184 -36 270 3 84 6 97 27
120 33 35 34 33 8 -11z m630 -55 c-3 -8 -6 -5 -6 6 -1 11 2 17 5 13 3 -3 4
-12 1 -19z m130 -10 c-3 -8 -6 -5 -6 6 -1 11 2 17 5 13 3 -3 4 -12 1 -19z
m-137 -16 c0 -5 -7 -17 -15 -28 -14 -18 -14 -17 -4 9 12 27 19 34 19 19z
m-338 -314 c2 -88 0 -132 -6 -121 -13 24 -20 192 -10 249 10 62 12 43 16 -128z
m-84 -51 c16 -34 50 -93 76 -131 25 -38 44 -71 42 -73 -9 -9 -97 113 -129 177
-26 53 -32 77 -34 140 l-2 75 9 -63 c5 -35 22 -92 38 -125z m-93 -84 c31 -89
73 -175 121 -251 19 -29 34 -55 34 -59 0 -14 -62 53 -90 97 -40 62 -116 290
-96 290 2 0 16 -35 31 -77z m209 -287 c9 -38 15 -71 12 -73 -4 -4 -46 146 -46
163 1 22 20 -27 34 -90z m110 -182 c70 -173 87 -231 117 -392 22 -121 23 -146
8 -137 -6 4 -8 14 -5 22 3 8 2 12 -3 9 -5 -3 -26 22 -46 57 -21 34 -68 104
-104 156 -60 87 -111 198 -111 239 0 9 11 -8 24 -39 26 -65 38 -86 120 -206
33 -48 73 -110 88 -137 16 -28 27 -42 24 -31 -3 11 -18 81 -35 156 -20 91 -45
172 -77 245 -41 96 -74 190 -74 218 0 20 12 -6 74 -160z" />
        <path d="M2652 1855 c0 -16 2 -22 5 -12 2 9 2 23 0 30 -3 6 -5 -1 -5 -18z" />
        <path d="M2548 3016 c-50 -15 -58 -26 -13 -16 21 5 42 13 48 19 13 13 14 13
-35 -3z" />
        <path
            d="M2460 2760 c-19 -10 -48 -33 -65 -50 l-30 -33 45 34 c25 19 57 42 70
51 33 22 24 22 -20 -2z" />
        <path
            d="M2451 2624 c-37 -47 -23 -123 30 -169 l23 -20 -19 30 c-52 82 -55
101 -24 151 25 40 19 45 -10 8z" />
        <path
            d="M2699 2509 c30 -20 32 -24 15 -30 -17 -7 -17 -8 4 -8 16 -1 22 -7 23
-23 1 -17 2 -19 6 -5 6 21 23 23 23 1 0 -13 2 -14 21 0 22 15 59 64 59 78 0 4
-13 0 -29 -10 -26 -14 -35 -15 -73 -4 -80 24 -83 24 -49 1z" />
        <path
            d="M2331 2497 c2 -2 18 -11 34 -22 l30 -18 -19 21 c-11 12 -26 22 -34
22 -9 0 -13 -1 -11 -3z" />
        <path
            d="M2911 2495 c0 -5 8 -26 19 -45 11 -19 19 -30 19 -25 0 6 -8 26 -19
45 -11 19 -19 31 -19 25z" />
        <path
            d="M2195 2471 c-13 -5 1 -8 40 -7 50 1 72 -5 130 -34 87 -43 105 -73
105 -175 1 -55 3 -66 11 -52 16 28 13 130 -4 164 -22 41 -36 51 -124 84 -78
29 -121 34 -158 20z" />
        <path
            d="M2790 2304 c-24 -28 -84 -46 -157 -48 -83 -1 -75 -16 9 -16 69 0 131
23 153 56 17 27 14 32 -5 8z" />
        <path
            d="M2996 2300 c3 -14 8 -68 11 -120 5 -102 -8 -189 -67 -437 -17 -69
-30 -130 -29 -137 1 -20 69 187 83 254 39 187 43 343 11 425 -8 22 -13 29 -9
15z" />
        <path
            d="M2781 2173 l-13 -31 -104 6 c-74 3 -104 2 -104 -7 0 -7 21 -11 59
-11 32 0 79 -3 104 -6 43 -6 46 -5 62 25 9 18 15 37 13 43 -2 6 -10 -2 -17
-19z" />
        <path
            d="M2936 2150 c19 -67 23 -99 22 -150 l-1 -55 -7 70 c-7 64 -35 154 -44
144 -3 -2 2 -29 10 -59 8 -30 14 -73 14 -95 l-1 -40 -24 47 c-33 62 -50 71
-23 11 53 -120 29 -254 -86 -488 -41 -82 -81 -178 -90 -212 -9 -34 -19 -70
-22 -80 -3 -10 8 6 23 35 16 29 33 49 37 45 5 -4 6 -3 2 4 -9 16 9 54 76 156
70 107 98 192 132 393 26 158 24 213 -9 272 -15 26 -15 26 -9 2z" />
        <path
            d="M3100 2050 c0 -3 11 -38 25 -78 14 -41 25 -81 26 -90 0 -11 2 -13 6
-4 5 13 -30 137 -47 162 -5 8 -10 13 -10 10z" />
        <path
            d="M3075 1955 c9 -94 -11 -195 -80 -407 -52 -163 -78 -226 -117 -290
-62 -101 -121 -208 -115 -208 3 0 39 51 81 113 87 131 123 211 165 363 17 60
39 136 51 169 25 71 36 213 21 270 l-11 40 5 -50z" />
        <path
            d="M3214 1848 c29 -78 30 -91 31 -228 0 -132 1 -140 12 -95 25 108 10
233 -41 349 -14 31 -27 56 -29 56 -2 0 10 -37 27 -82z" />
        <path
            d="M3356 1700 c15 -30 35 -80 45 -110 10 -30 18 -46 18 -34 1 35 -38
138 -64 169 l-26 30 27 -55z" />
        <path
            d="M3133 1602 c-2 -113 -23 -219 -59 -306 -38 -92 -38 -95 -5 -41 56 91
73 150 78 270 3 61 1 125 -3 142 -7 25 -9 11 -11 -65z" />
        <path d="M3599 1652 c38 -46 79 -80 85 -70 1 2 -28 30 -63 63 l-65 60 43 -53z" />
        <path d="M3536 1668 c45 -55 70 -80 89 -90 21 -11 11 3 -59 80 -33 36 -60 45
-30 10z" />
        <path
            d="M3344 1655 c22 -86 28 -132 28 -210 1 -49 -2 -106 -6 -125 -5 -31 -5
-32 4 -10 30 68 19 280 -16 340 -11 19 -14 20 -10 5z" />
        <path d="M3423 1650 c13 -50 61 -179 65 -175 6 6 -36 136 -54 165 -8 14 -14
18 -11 10z" />
        <path
            d="M3080 1543 c0 -21 -9 -76 -20 -122 -23 -95 -20 -120 5 -39 17 56 32
198 21 198 -3 0 -6 -17 -6 -37z" />
        <path d="M3021 1494 c0 -11 3 -14 6 -6 3 7 2 16 -1 19 -3 4 -6 -2 -5 -13z" />
        <path
            d="M3554 1470 c8 -45 54 -118 86 -138 l25 -16 -27 30 c-15 16 -41 58
-58 94 -26 53 -31 58 -26 30z" />
        <path
            d="M3216 1178 c-21 -97 -71 -227 -117 -301 -29 -48 -29 -50 -6 -29 37
35 83 126 110 222 23 79 42 190 34 190 -2 0 -12 -37 -21 -82z" />
        <path d="M3131 1154 c0 -11 3 -14 6 -6 3 7 2 16 -1 19 -3 4 -6 -2 -5 -13z" />
        <path
            d="M3530 1158 c-1 -7 -7 -49 -15 -93 -16 -88 -13 -113 4 -38 15 69 24
143 17 143 -3 0 -6 -6 -6 -12z" />
        <path
            d="M3098 1062 c-16 -37 -57 -116 -93 -177 -67 -112 -109 -209 -101 -229
3 -7 5 -6 5 2 1 7 32 61 70 120 86 134 104 170 131 259 29 96 22 109 -12 25z" />
        <path
            d="M2857 1017 c-26 -51 -47 -96 -47 -102 1 -5 24 34 51 89 28 54 49 100
47 102 -2 2 -25 -38 -51 -89z" />
        <path
            d="M3391 1053 c-18 -80 -57 -178 -99 -243 -26 -41 -29 -50 -12 -35 48
43 110 187 126 290 9 64 0 56 -15 -12z" />
        <path d="M3432 975 c0 -16 2 -22 5 -12 2 9 2 23 0 30 -3 6 -5 -1 -5 -18z" />
        <path
            d="M3342 670 c-12 -16 -50 -60 -85 -96 -34 -37 -53 -62 -42 -56 30 15
120 113 139 150 21 40 16 41 -12 2z" />
    </g>
</svg>